  0%|          | 0/11 [00:00<?, ?it/s]Traceback (most recent call last):
  File "get_spectrogram.py", line 52, in <module>
    fire.Fire({'run': e.iter_get_spectrogram})
  File "/usr/local/lib/python2.7/dist-packages/fire/core.py", line 127, in Fire
    component_trace = _Fire(component, args, context, name)
  File "/usr/local/lib/python2.7/dist-packages/fire/core.py", line 366, in _Fire
    component, remaining_args)
  File "/usr/local/lib/python2.7/dist-packages/fire/core.py", line 542, in _CallCallable
    result = fn(*varargs, **kwargs)
  File "get_spectrogram.py", line 47, in iter_get_spectrogram
    spec = self.get_spectrogram(fn)
  File "get_spectrogram.py", line 24, in get_spectrogram
    X = self.ap.mel(self.ap.forward(self.ap.load(fn)), logamp=True)
  File "preprocessing/audio.py", line 26, in load
    return librosa.load(fn, sr=self.sr, mono=self.mono)[0]
  File "/usr/local/lib/python2.7/dist-packages/librosa/core/audio.py", line 126, in load
    for frame in input_file:
  File "/usr/local/lib/python2.7/dist-packages/audioread/ffdec.py", line 181, in read_data
    ''.join(self.stderr_reader.queue.queue)
audioread.ffdec.ReadTimeoutError: ffmpeg output: Output #0, s16le, to 'pipe:':
  Metadata:
    genre           : Blues
    encoder         : Lavf56.40.101
    Stream #0:0: Audio: pcm_s16le, 44100 Hz, stereo, s16, 1411 kb/s
    Metadata:
      encoder         : Lavc56.60.100 pcm_s16le
Stream mapping:
  Stream #0:0 -> #0:0 (mp3 (native) -> pcm_s16le (native))
Press [q] to stop, [?] for help
size=      58kB time=00:00:00.33 bitrate=1411.2kbits/s    size=      63kB time=00:00:00.36 bitrate=1411.2kbits/s    size=      68kB time=00:00:00.39 bitrate=1411.2kbits/s    size=      72kB time=00:00:00.41 bitrate=1411.2kbits/s    size=      76kB time=00:00:00.44 bitrate=1411.2kbits/s    size=      81kB time=00:00:00.47 bitrate=1411.2kbits/s    size=     135kB time=00:00:00.78 bitrate=1411.2kbits/s    size=     140kB time=00:00:00.80 bitrate=1411.2kbits/s    size=     158kB time=00:00:00.91 bitrate=1411.2kbits/s    size=     166kB time=00:00:00.96 bitrate=1411.2kbits/s    size=     180kB time=00:00:01.04 bitrate=1411.2kbits/s    size=     212kB time=00:00:01.22
